<svg xmlns="http://www.w3.org/2000/svg" xmlns:xlink="http://www.w3.org/1999/xlink" version="1.1" width="24" height="24" viewBox="0 0 256 256" xml:space="preserve">
<desc>Created with Fabric.js 1.7.22</desc>
<defs>
</defs>
<g transform="translate(128 128) scale(0.72 0.72)" style="">
	<g style="stroke: none; stroke-width: 0; stroke-dasharray: none; stroke-linecap: butt; stroke-linejoin: miter; stroke-miterlimit: 10; fill: none; fill-rule: nonzero; opacity: 1;" transform="translate(-175.05 -175.05000000000004) scale(3.89 3.89)" >
	<path d="M 52.971 60.798 c -3.136 -3.136 -7.022 -4.854 -10.587 -5.014 l -4.391 -4.391 l 13.249 -13.249 l 4.391 4.391 c 0.16 3.564 1.878 7.451 5.014 10.587 s 7.022 4.854 10.587 5.014 l 14.878 14.878 c 3.659 3.659 3.658 9.59 0 13.249 c -3.659 3.659 -9.59 3.659 -13.249 0 L 57.985 71.385 C 57.825 67.82 56.107 63.934 52.971 60.798 z" style="stroke: none; stroke-width: 1; stroke-dasharray: none; stroke-linecap: butt; stroke-linejoin: miter; stroke-miterlimit: 10; fill: rgb(247,171,49); fill-rule: nonzero; opacity: 1;" transform=" matrix(1 0 0 1 0 0) " stroke-linecap="round" />
	<polygon points="1.15,4.22 4.37,0.99 13.68,6.22 16.31,11.59 47.05,42.33 42.48,46.9 11.75,16.16 6.37,13.53 " style="stroke: none; stroke-width: 1; stroke-dasharray: none; stroke-linecap: butt; stroke-linejoin: miter; stroke-miterlimit: 10; fill: rgb(204,204,204); fill-rule: nonzero; opacity: 1;" transform="  matrix(1 0 0 1 0 0) "/>
	<path d="M 79.487 89.998 c -2.654 0 -5.309 -1.01 -7.329 -3.031 L 57.28 72.089 c -0.176 -0.176 -0.28 -0.412 -0.291 -0.66 c -0.155 -3.463 -1.877 -7.081 -4.723 -9.926 l 0 0 c -2.846 -2.846 -6.464 -4.568 -9.927 -4.723 c -0.249 -0.011 -0.484 -0.115 -0.66 -0.291 l -4.391 -4.392 c -0.389 -0.389 -0.389 -1.02 0 -1.409 L 50.538 37.44 c 0.187 -0.187 0.44 -0.292 0.705 -0.292 l 0 0 c 0.265 0 0.518 0.105 0.705 0.292 l 4.391 4.391 c 0.176 0.176 0.279 0.411 0.291 0.66 c 0.156 3.463 1.878 7.081 4.723 9.927 c 2.846 2.845 6.465 4.567 9.927 4.723 c 0.248 0.012 0.484 0.115 0.66 0.291 l 14.878 14.878 c 1.958 1.957 3.036 4.561 3.036 7.329 c 0 2.768 -1.078 5.371 -3.036 7.328 C 84.795 88.987 82.141 89.998 79.487 89.998 z M 58.957 70.947 l 14.61 14.61 c 3.265 3.265 8.575 3.265 11.84 0 c 1.582 -1.581 2.452 -3.683 2.452 -5.919 c 0 -2.236 -0.87 -4.338 -2.452 -5.92 l -14.61 -14.61 c -3.831 -0.284 -7.766 -2.194 -10.855 -5.281 c -3.087 -3.088 -4.997 -7.024 -5.281 -10.855 l -3.418 -3.419 L 39.403 51.393 l 3.418 3.419 c 3.831 0.283 7.766 2.193 10.854 5.281 l 0 0 l 0 0 C 56.764 63.181 58.674 67.116 58.957 70.947 z" style="stroke: none; stroke-width: 1; stroke-dasharray: none; stroke-linecap: butt; stroke-linejoin: miter; stroke-miterlimit: 10; fill: rgb(0,0,0); fill-rule: nonzero; opacity: 1;" transform=" matrix(1 0 0 1 0 0) " stroke-linecap="round" />
	<path d="M 80.87 82.018 c -0.255 0 -0.51 -0.097 -0.705 -0.292 L 47.989 49.55 c -0.389 -0.389 -0.389 -1.02 0 -1.409 c 0.389 -0.389 1.02 -0.389 1.409 0 l 32.176 32.176 c 0.389 0.389 0.389 1.02 0 1.409 C 81.38 81.921 81.125 82.018 80.87 82.018 z" style="stroke: none; stroke-width: 1; stroke-dasharray: none; stroke-linecap: butt; stroke-linejoin: miter; stroke-miterlimit: 10; fill: rgb(0,0,0); fill-rule: nonzero; opacity: 1;" transform=" matrix(1 0 0 1 0 0) " stroke-linecap="round" />
	<path d="M 42.485 47.899 c -0.264 0 -0.518 -0.105 -0.705 -0.292 L 11.159 16.984 L 5.93 14.421 c -0.181 -0.089 -0.331 -0.231 -0.43 -0.407 L 0.276 4.707 C 0.058 4.317 0.125 3.83 0.441 3.514 l 3.225 -3.225 c 0.316 -0.315 0.803 -0.382 1.192 -0.164 l 9.307 5.223 c 0.176 0.099 0.318 0.249 0.407 0.43 l 2.564 5.229 l 30.622 30.622 c 0.389 0.389 0.389 1.02 0 1.409 l -4.568 4.568 C 43.003 47.793 42.749 47.899 42.485 47.899 z M 7.086 12.768 l 5.099 2.5 c 0.098 0.048 0.188 0.112 0.266 0.19 l 30.034 30.035 l 3.158 -3.159 L 15.609 12.299 c -0.078 -0.077 -0.142 -0.167 -0.19 -0.266 l -2.5 -5.099 L 4.541 2.232 L 2.384 4.39 L 7.086 12.768 z" style="stroke: none; stroke-width: 1; stroke-dasharray: none; stroke-linecap: butt; stroke-linejoin: miter; stroke-miterlimit: 10; fill: rgb(0,0,0); fill-rule: nonzero; opacity: 1;" transform=" matrix(1 0 0 1 0 0) " stroke-linecap="round" />
	<path d="M 16.772 60.846 L 3.657 74.587 c -3.225 3.379 -3.1 8.733 0.279 11.958 s 8.733 3.1 11.958 -0.279 l 13.115 -13.741 c 0.07 -3.221 1.538 -6.765 4.303 -9.661 c 2.764 -2.896 6.236 -4.529 9.45 -4.748 l 3.871 -4.056 L 34.395 42.381 l -3.871 4.056 L 16.772 60.846 z" style="stroke: none; stroke-width: 1; stroke-dasharray: none; stroke-linecap: butt; stroke-linejoin: miter; stroke-miterlimit: 10; fill: rgb(247,171,49); fill-rule: nonzero; opacity: 1;" transform=" matrix(1 0 0 1 0 0) " stroke-linecap="round" />
	<polyline points="55.17,25.88 37.02,44.89 43.72,51.28 61.87,32.27 " style="stroke: none; stroke-width: 1; stroke-dasharray: none; stroke-linecap: butt; stroke-linejoin: miter; stroke-miterlimit: 10; fill: rgb(204,204,204); fill-rule: nonzero; opacity: 1;" transform="  matrix(1 0 0 1 0 0) "/>
	<path d="M 87.933 27.782 l -3.718 -3.548 L 83.96 24.5 c -1.221 1.279 -3.247 1.529 -4.636 0.435 c -1.594 -1.255 -1.73 -3.573 -0.363 -5.005 l 0.355 -0.372 L 67.406 8.191 l -1.417 -1.353 c -7.909 -7.549 -20.441 -7.256 -27.989 0.653 c 8.672 -1.514 17.787 8.787 14.741 16.066 l 11.91 11.367 l 0.997 -1.045 l 0.255 -0.267 c 1.221 -1.279 3.246 -1.529 4.636 -0.435 c 1.594 1.255 1.73 3.573 0.363 5.005 l -0.355 0.372 l 3.718 3.548 c 1.412 1.348 3.65 1.296 4.997 -0.117 l 8.787 -9.207 C 89.397 31.367 89.345 29.13 87.933 27.782 z" style="stroke: none; stroke-width: 1; stroke-dasharray: none; stroke-linecap: butt; stroke-linejoin: miter; stroke-miterlimit: 10; fill: rgb(204,204,204); fill-rule: nonzero; opacity: 1;" transform=" matrix(1 0 0 1 0 0) " stroke-linecap="round" />
	<path d="M 70.547 38.555 l 3.718 3.548 c 1.412 1.348 3.65 1.296 4.997 -0.117 l 8.787 -9.207 c 1.348 -1.412 1.296 -3.65 -0.117 -4.997 l -3.718 -3.548 L 70.547 38.555 z" style="stroke: none; stroke-width: 1; stroke-dasharray: none; stroke-linecap: butt; stroke-linejoin: miter; stroke-miterlimit: 10; fill: rgb(204,204,204); fill-rule: nonzero; opacity: 1;" transform=" matrix(1 0 0 1 0 0) " stroke-linecap="round" />
	<rect x="57.56" y="10.84" rx="0" ry="0" width="16.74" height="21.24" style="stroke: none; stroke-width: 1; stroke-dasharray: none; stroke-linecap: butt; stroke-linejoin: miter; stroke-miterlimit: 10; fill: rgb(204,204,204); fill-rule: nonzero; opacity: 1;" transform=" matrix(0.7234 0.6904 -0.6904 0.7234 33.0541 -39.5824) "/>
	<path d="M 9.774 89.877 c -2.347 0 -4.698 -0.866 -6.526 -2.611 c -1.827 -1.743 -2.866 -4.094 -2.924 -6.619 c -0.059 -2.526 0.869 -4.922 2.612 -6.749 l 13.116 -13.741 h 0 l 17.623 -18.465 c 0.182 -0.191 0.434 -0.302 0.698 -0.308 c 0.26 -0.027 0.52 0.092 0.712 0.275 L 47.32 53.339 c 0.398 0.381 0.413 1.011 0.033 1.409 l -3.87 4.056 c -0.172 0.18 -0.405 0.289 -0.653 0.307 c -3.098 0.211 -6.304 1.831 -8.797 4.441 c -2.492 2.611 -3.96 5.89 -4.027 8.995 c -0.006 0.249 -0.104 0.487 -0.275 0.667 L 16.615 86.955 C 14.76 88.898 12.269 89.877 9.774 89.877 z M 34.428 43.79 L 17.493 61.534 h 0 L 4.377 75.275 c -1.376 1.442 -2.108 3.334 -2.062 5.326 c 0.047 1.992 0.866 3.848 2.308 5.223 c 2.976 2.839 7.709 2.729 10.55 -0.245 L 28.027 72.11 c 0.186 -3.476 1.835 -7.075 4.563 -9.935 c 2.729 -2.859 6.247 -4.673 9.711 -5.021 l 2.922 -3.061 L 34.428 43.79 z M 16.772 60.846 h 0.01 H 16.772 z" style="stroke: none; stroke-width: 1; stroke-dasharray: none; stroke-linecap: butt; stroke-linejoin: miter; stroke-miterlimit: 10; fill: rgb(0,0,0); fill-rule: nonzero; opacity: 1;" transform=" matrix(1 0 0 1 0 0) " stroke-linecap="round" />
	<path d="M 8.556 82.7 c -0.247 0 -0.495 -0.091 -0.688 -0.275 c -0.398 -0.381 -0.413 -1.011 -0.033 -1.409 l 28.364 -29.718 c 0.381 -0.398 1.011 -0.412 1.409 -0.033 c 0.398 0.381 0.413 1.011 0.033 1.409 L 9.277 82.392 C 9.081 82.597 8.819 82.7 8.556 82.7 z" style="stroke: none; stroke-width: 1; stroke-dasharray: none; stroke-linecap: butt; stroke-linejoin: miter; stroke-miterlimit: 10; fill: rgb(0,0,0); fill-rule: nonzero; opacity: 1;" transform=" matrix(1 0 0 1 0 0) " stroke-linecap="round" />
	<path d="M 43.724 52.281 c -0.247 0 -0.495 -0.091 -0.688 -0.275 l -6.7 -6.394 c -0.191 -0.183 -0.302 -0.434 -0.308 -0.698 c -0.006 -0.264 0.092 -0.52 0.275 -0.712 l 18.147 -19.013 c 0.381 -0.398 1.012 -0.412 1.409 -0.033 c 0.398 0.38 0.413 1.011 0.033 1.409 L 38.433 44.856 l 5.258 5.018 l 17.458 -18.292 c 0.381 -0.398 1.012 -0.412 1.409 -0.033 c 0.398 0.38 0.413 1.011 0.033 1.409 L 44.445 51.972 C 44.249 52.177 43.987 52.281 43.724 52.281 z" style="stroke: none; stroke-width: 1; stroke-dasharray: none; stroke-linecap: butt; stroke-linejoin: miter; stroke-miterlimit: 10; fill: rgb(0,0,0); fill-rule: nonzero; opacity: 1;" transform=" matrix(1 0 0 1 0 0) " stroke-linecap="round" />
	<path d="M 76.702 44.078 c -1.17 0 -2.276 -0.443 -3.125 -1.254 l -3.718 -3.548 c -0.192 -0.183 -0.302 -0.434 -0.309 -0.698 c -0.006 -0.264 0.093 -0.52 0.276 -0.712 l 0.355 -0.372 c 0.462 -0.485 0.702 -1.149 0.654 -1.819 c -0.049 -0.68 -0.373 -1.289 -0.914 -1.715 c -0.951 -0.749 -2.401 -0.601 -3.298 0.34 l -1.253 1.312 c -0.183 0.191 -0.434 0.302 -0.698 0.308 c -0.268 0.014 -0.52 -0.093 -0.712 -0.275 l -11.91 -11.367 c -0.299 -0.285 -0.39 -0.725 -0.232 -1.106 c 1.173 -2.802 0.354 -6.377 -2.19 -9.566 c -3.036 -3.803 -7.535 -5.824 -11.46 -5.134 c -0.424 0.072 -0.848 -0.132 -1.05 -0.512 c -0.203 -0.38 -0.139 -0.846 0.158 -1.158 c 7.916 -8.294 21.103 -8.6 29.398 -0.686 l 13.328 12.72 c 0.192 0.183 0.302 0.434 0.309 0.698 c 0.006 0.264 -0.093 0.52 -0.276 0.712 l -0.355 0.372 c -0.462 0.485 -0.702 1.149 -0.654 1.819 c 0.049 0.68 0.373 1.289 0.914 1.715 c 0.952 0.749 2.401 0.601 3.298 -0.34 l 0.255 -0.267 c 0.183 -0.191 0.434 -0.302 0.698 -0.308 c 0.261 -0.03 0.52 0.092 0.712 0.275 l 3.717 3.548 c 0.876 0.836 1.373 1.962 1.402 3.173 c 0.028 1.21 -0.417 2.359 -1.252 3.234 l -8.787 9.207 c -0.836 0.876 -1.962 1.373 -3.172 1.402 C 76.774 44.077 76.738 44.078 76.702 44.078 z M 71.937 38.503 l 3.016 2.878 c 0.491 0.468 1.114 0.722 1.811 0.702 c 0.677 -0.016 1.308 -0.294 1.776 -0.785 l 8.787 -9.207 c 0.468 -0.491 0.717 -1.133 0.702 -1.811 c -0.017 -0.677 -0.295 -1.309 -0.785 -1.776 v 0 l -3.027 -2.89 c -1.609 1.28 -3.919 1.358 -5.51 0.106 c -0.972 -0.767 -1.581 -1.911 -1.668 -3.14 c -0.075 -1.068 0.245 -2.126 0.888 -2.97 L 65.3 7.559 C 58.453 1.024 47.913 0.688 40.685 6.39 c 3.818 0.321 7.722 2.488 10.503 5.973 c 2.821 3.534 3.809 7.563 2.715 10.925 l 10.715 10.226 l 0.566 -0.591 c 1.597 -1.674 4.221 -1.909 5.972 -0.529 c 0.973 0.767 1.582 1.911 1.669 3.14 C 72.899 36.602 72.579 37.66 71.937 38.503 z" style="stroke: none; stroke-width: 1; stroke-dasharray: none; stroke-linecap: butt; stroke-linejoin: miter; stroke-miterlimit: 10; fill: rgb(0,0,0); fill-rule: nonzero; opacity: 1;" transform=" matrix(1 0 0 1 0 0) " stroke-linecap="round" />
	<path d="M 76.702 44.078 c -1.17 0 -2.276 -0.443 -3.125 -1.254 l -3.718 -3.548 c -0.191 -0.183 -0.302 -0.434 -0.309 -0.698 c -0.006 -0.264 0.093 -0.52 0.275 -0.712 l 13.669 -14.321 c 0.183 -0.191 0.434 -0.302 0.698 -0.308 c 0.261 -0.03 0.52 0.092 0.712 0.275 l 3.717 3.549 c 0.876 0.835 1.373 1.962 1.402 3.172 c 0.028 1.21 -0.417 2.359 -1.252 3.234 l -8.787 9.207 c -0.836 0.876 -1.962 1.373 -3.172 1.402 C 76.774 44.077 76.738 44.078 76.702 44.078 z M 71.956 38.521 l 2.997 2.86 c 0.491 0.468 1.114 0.722 1.811 0.702 c 0.677 -0.016 1.308 -0.294 1.776 -0.785 l 8.787 -9.207 c 0.468 -0.491 0.717 -1.133 0.702 -1.811 c -0.017 -0.677 -0.295 -1.309 -0.785 -1.776 l -2.996 -2.861 L 71.956 38.521 z" style="stroke: none; stroke-width: 1; stroke-dasharray: none; stroke-linecap: butt; stroke-linejoin: miter; stroke-miterlimit: 10; fill: rgb(0,0,0); fill-rule: nonzero; opacity: 1;" transform=" matrix(1 0 0 1 0 0) " stroke-linecap="round" />
	<path d="M 64.65 35.921 c -0.256 0 -0.502 -0.098 -0.688 -0.276 L 51.854 24.088 c -0.398 -0.38 -0.413 -1.011 -0.033 -1.409 L 66.486 7.313 c 0.38 -0.398 1.012 -0.412 1.409 -0.033 l 12.109 11.557 c 0.191 0.183 0.302 0.434 0.309 0.698 c 0.006 0.264 -0.093 0.52 -0.275 0.712 L 65.371 35.613 c -0.183 0.191 -0.434 0.302 -0.698 0.308 C 64.666 35.921 64.658 35.921 64.65 35.921 z M 53.951 23.334 l 10.666 10.181 l 13.29 -13.924 L 67.24 9.411 L 53.951 23.334 z" style="stroke: none; stroke-width: 1; stroke-dasharray: none; stroke-linecap: butt; stroke-linejoin: miter; stroke-miterlimit: 10; fill: rgb(0,0,0); fill-rule: nonzero; opacity: 1;" transform=" matrix(1 0 0 1 0 0) " stroke-linecap="round" />
</g>
</g>
</svg>