<svg xmlns="http://www.w3.org/2000/svg" xmlns:xlink="http://www.w3.org/1999/xlink" version="1.1" width="24" height="24" viewBox="0 0 256 256" xml:space="preserve">
<desc>Created with Fabric.js 1.7.22</desc>
<defs>
</defs>
<g transform="translate(128 128) scale(0.72 0.72)" style="">
	<g style="stroke: none; stroke-width: 0; stroke-dasharray: none; stroke-linecap: butt; stroke-linejoin: miter; stroke-miterlimit: 10; fill: none; fill-rule: nonzero; opacity: 1;" transform="translate(-175.05 -175.05000000000004) scale(3.89 3.89)" >
	<path d="M 14.372 75.998 H 8.726 V 64.16 h 5.646 c 0.552 0 1 -0.447 1 -1 s -0.448 -1 -1 -1 H 1 c -0.552 0 -1 0.447 -1 1 v 13.838 c 0 0.553 0.448 1 1 1 h 13.372 c 0.552 0 1 -0.447 1 -1 S 14.924 75.998 14.372 75.998 z M 2 64.16 h 4.726 v 11.838 H 2 V 64.16 z" style="stroke: none; stroke-width: 1; stroke-dasharray: none; stroke-linecap: butt; stroke-linejoin: miter; stroke-miterlimit: 10; fill: rgb(189,118,33); fill-rule: nonzero; opacity: 1;" transform=" matrix(1 0 0 1 0 0) " stroke-linecap="round" />
	<path d="M 89 62.16 H 75.628 c -0.553 0 -1 0.447 -1 1 s 0.447 1 1 1 h 5.758 v 11.838 h -5.758 c -0.553 0 -1 0.447 -1 1 s 0.447 1 1 1 H 89 c 0.553 0 1 -0.447 1 -1 V 63.16 C 90 62.607 89.553 62.16 89 62.16 z M 88 75.998 h -4.614 V 64.16 H 88 V 75.998 z" style="stroke: none; stroke-width: 1; stroke-dasharray: none; stroke-linecap: butt; stroke-linejoin: miter; stroke-miterlimit: 10; fill: rgb(189,118,33); fill-rule: nonzero; opacity: 1;" transform=" matrix(1 0 0 1 0 0) " stroke-linecap="round" />
	<rect x="14.37" y="34.13" rx="0" ry="0" width="61.26" height="43.87" style="stroke: none; stroke-width: 1; stroke-dasharray: none; stroke-linecap: butt; stroke-linejoin: miter; stroke-miterlimit: 10; fill: rgb(221,139,40); fill-rule: nonzero; opacity: 1;" transform=" matrix(1 0 0 1 0 0) "/>
	<path d="M 40.381 65.565 H 26.349 c -1.909 0 -3.456 -1.547 -3.456 -3.456 V 51.296 c 0 -1.909 1.547 -3.456 3.456 -3.456 h 14.032 c 1.909 0 3.456 1.547 3.456 3.456 v 10.813 C 43.837 64.017 42.29 65.565 40.381 65.565 z" style="stroke: none; stroke-width: 1; stroke-dasharray: none; stroke-linecap: butt; stroke-linejoin: miter; stroke-miterlimit: 10; fill: rgb(249,249,249); fill-rule: nonzero; opacity: 1;" transform=" matrix(1 0 0 1 0 0) " stroke-linecap="round" />
	<path d="M 63.156 47.839 h -7.068 c -2.579 0 -4.67 2.091 -4.67 4.67 V 76.18 h 16.407 V 52.509 C 67.825 49.93 65.735 47.839 63.156 47.839 z" style="stroke: none; stroke-width: 1; stroke-dasharray: none; stroke-linecap: butt; stroke-linejoin: miter; stroke-miterlimit: 10; fill: rgb(189,118,33); fill-rule: nonzero; opacity: 1;" transform=" matrix(1 0 0 1 0 0) " stroke-linecap="round" />
	<path d="M 83.18 31.205 L 45.695 12.351 c -0.437 -0.22 -0.952 -0.22 -1.389 0 L 6.82 31.205 c -1.456 0.732 -0.935 2.927 0.695 2.927 h 74.97 C 84.114 34.132 84.635 31.937 83.18 31.205 z" style="stroke: none; stroke-width: 1; stroke-dasharray: none; stroke-linecap: butt; stroke-linejoin: miter; stroke-miterlimit: 10; fill: rgb(189,118,33); fill-rule: nonzero; opacity: 1;" transform=" matrix(1 0 0 1 0 0) " stroke-linecap="round" />
	<path d="M 40.381 46.839 H 26.349 c -2.457 0 -4.456 1.999 -4.456 4.457 v 10.813 c 0 2.457 1.999 4.456 4.456 4.456 h 14.032 c 2.457 0 4.456 -1.999 4.456 -4.456 V 51.296 C 44.837 48.838 42.838 46.839 40.381 46.839 z M 42.837 51.296 v 4.406 h -8.149 v -6.863 h 5.693 C 41.735 48.839 42.837 49.941 42.837 51.296 z M 26.349 48.839 h 6.339 v 6.863 h -8.795 v -4.406 C 23.893 49.941 24.995 48.839 26.349 48.839 z M 23.893 62.108 v -4.406 h 8.795 v 6.862 h -6.339 C 24.995 64.564 23.893 63.463 23.893 62.108 z M 40.381 64.564 h -5.693 v -6.862 h 8.149 v 4.406 C 42.837 63.463 41.735 64.564 40.381 64.564 z" style="stroke: none; stroke-width: 1; stroke-dasharray: none; stroke-linecap: butt; stroke-linejoin: miter; stroke-miterlimit: 10; fill: rgb(189,118,33); fill-rule: nonzero; opacity: 1;" transform=" matrix(1 0 0 1 0 0) " stroke-linecap="round" />
</g>
</g>
</svg>