<?xml version="1.0" encoding="utf-8"?>
<!-- Generator: Adobe Illustrator 21.0.0, SVG Export Plug-In . SVG Version: 6.00 Build 0)  -->
<svg version="1.1" id="Layer_1" xmlns="http://www.w3.org/2000/svg" xmlns:xlink="http://www.w3.org/1999/xlink" x="0px" y="0px"
	 viewBox="0 0 512 512" style="enable-background:new 0 0 512 512;" xml:space="preserve">
<g>
	<path fill="currentColor" d="M242.3,200.4v-63.6l-107,71.2l47.8,31.9L242.3,200.4z M387.5,279.1v-45.6l-34.2,22.8L387.5,279.1z M256,0
		C114.6,0,0,114.6,0,256c0,141.4,114.6,256,256,256c141.4,0,256-114.6,256-256C512,114.6,397.4,0,256,0z M414.9,304.6
		c0,0.6-0.1,1.2-0.1,1.8c0,0.2-0.1,0.4-0.1,0.6c-0.1,0.6-0.2,1.2-0.5,1.8c-0.1,0.3-0.2,0.7-0.3,1c-0.1,0.2-0.2,0.5-0.3,0.7
		c-0.2,0.3-0.3,0.6-0.5,0.9c-0.1,0.2-0.2,0.4-0.4,0.6c-0.2,0.3-0.4,0.6-0.6,0.9c-0.2,0.2-0.3,0.4-0.5,0.6c-0.2,0.2-0.5,0.5-0.7,0.7
		c-0.2,0.2-0.3,0.3-0.6,0.5c-0.2,0.2-0.5,0.5-0.8,0.6c-0.2,0.2-0.4,0.3-0.6,0.5c-0.1,0.1-0.2,0.1-0.2,0.2l-145.2,96.7
		c-2.3,1.5-4.9,2.3-7.5,2.3c-2.7,0-5.3-0.8-7.6-2.3l-145.2-96.6c-0.1-0.1-0.2-0.1-0.2-0.2l-0.6-0.5c-0.3-0.2-0.5-0.4-0.7-0.6
		c-0.2-0.2-0.3-0.3-0.6-0.5c-0.2-0.2-0.5-0.5-0.7-0.7c-0.2-0.2-0.3-0.4-0.5-0.6c-0.2-0.3-0.4-0.6-0.6-0.9c-0.1-0.2-0.3-0.4-0.4-0.6
		c-0.2-0.3-0.3-0.6-0.5-0.9c-0.1-0.2-0.2-0.5-0.3-0.7c-0.1-0.3-0.2-0.7-0.3-1c-0.1-0.2-0.2-0.5-0.2-0.7c-0.1-0.4-0.2-0.7-0.2-1.1
		c-0.1-0.2-0.1-0.4-0.1-0.6c-0.1-0.6-0.1-1.2-0.1-1.8v-96.7c0-0.6,0.1-1.2,0.1-1.8c0.1-0.2,0.1-0.4,0.1-0.6c0.1-0.6,0.2-1.2,0.5-1.8
		c0.1-0.3,0.2-0.7,0.3-1c0.1-0.2,0.2-0.5,0.3-0.7c0.1-0.3,0.3-0.6,0.5-0.9c0.1-0.2,0.2-0.4,0.4-0.6c0.3-0.5,0.7-1,1-1.4
		c0.2-0.2,0.5-0.5,0.7-0.7c0.2-0.2,0.3-0.3,0.6-0.5c0.2-0.2,0.5-0.5,0.7-0.6c0.2-0.2,0.4-0.3,0.6-0.5c0.1-0.1,0.2-0.1,0.2-0.2
		L248.4,100c4.6-3,10.6-3,15.1,0l145.2,96.6c0.1,0.1,0.2,0.1,0.2,0.2l0.6,0.5l0.8,0.6c0.2,0.2,0.3,0.3,0.6,0.5
		c0.2,0.2,0.5,0.5,0.7,0.7c0.4,0.5,0.7,0.9,1,1.4c0.1,0.2,0.3,0.4,0.4,0.6c0.2,0.3,0.3,0.6,0.5,0.9c0.1,0.2,0.2,0.5,0.3,0.7
		c0.1,0.3,0.2,0.7,0.3,1c0.1,0.2,0.2,0.5,0.2,0.7c0.1,0.4,0.2,0.7,0.2,1.1c0.1,0.2,0.1,0.4,0.1,0.6c0.1,0.6,0.1,1.2,0.1,1.8V304.6z
		 M269.7,312.2v63.6l107-71.2l-47.8-31.9L269.7,312.2z M124.5,233.5v45.6l34.2-22.8L124.5,233.5z M256,224.1l-48.3,32.2l48.3,32.2
		l48.3-32.2L256,224.1z M376.6,208l-107-71.2v63.6l59.2,39.5L376.6,208z M183.1,272.7l-47.8,31.9l107,71.2v-63.6L183.1,272.7z"/>
</g>
</svg>
