<svg width="58" height="36" viewBox="0 0 58 36" fill="none" xmlns="http://www.w3.org/2000/svg">
<g filter="url(#filter0_d)">
<path d="M39.8236 1.46423H18.1766C11.1593 1.46423 5.4707 7.07666 5.4707 13.9999C5.4707 20.9232 11.1593 26.5357 18.1766 26.5357H39.8236C46.8409 26.5357 52.5295 20.9232 52.5295 13.9999C52.5295 7.07666 46.8409 1.46423 39.8236 1.46423Z" fill="#F5F5F5"/>
</g>
<g filter="url(#filter1_d)">
<path fill-rule="evenodd" clip-rule="evenodd" d="M18.1766 1.96423C11.4291 1.96423 5.9707 7.35914 5.9707 13.9999C5.9707 20.6408 11.4291 26.0357 18.1766 26.0357H39.8236C46.5711 26.0357 52.0295 20.6408 52.0295 13.9999C52.0295 7.35914 46.5711 1.96423 39.8236 1.96423H18.1766ZM4.9707 13.9999C4.9707 6.79419 10.8896 0.964233 18.1766 0.964233H39.8236C47.1107 0.964233 53.0295 6.79419 53.0295 13.9999C53.0295 21.2057 47.1107 27.0357 39.8236 27.0357H18.1766C10.8896 27.0357 4.9707 21.2057 4.9707 13.9999Z" fill="#363636"/>
</g>
<path d="M29 14C29 20.0751 24.0751 25 18 25C11.9249 25 7 20.0751 7 14C7 7.92487 11.9249 3 18 3C24.0751 3 29 7.92487 29 14Z" fill="#363636"/>
<defs>
<filter id="filter0_d" x="1.4707" y="1.46423" width="55.0588" height="33.0714" filterUnits="userSpaceOnUse" color-interpolation-filters="sRGB">
<feFlood flood-opacity="0" result="BackgroundImageFix"/>
<feColorMatrix in="SourceAlpha" type="matrix" values="0 0 0 0 0 0 0 0 0 0 0 0 0 0 0 0 0 0 127 0" result="hardAlpha"/>
<feOffset dy="4"/>
<feGaussianBlur stdDeviation="2"/>
<feComposite in2="hardAlpha" operator="out"/>
<feColorMatrix type="matrix" values="0 0 0 0 0 0 0 0 0 0 0 0 0 0 0 0 0 0 0.25 0"/>
<feBlend mode="normal" in2="BackgroundImageFix" result="effect1_dropShadow"/>
<feBlend mode="normal" in="SourceGraphic" in2="effect1_dropShadow" result="shape"/>
</filter>
<filter id="filter1_d" x="0.970703" y="0.964233" width="56.0588" height="34.0714" filterUnits="userSpaceOnUse" color-interpolation-filters="sRGB">
<feFlood flood-opacity="0" result="BackgroundImageFix"/>
<feColorMatrix in="SourceAlpha" type="matrix" values="0 0 0 0 0 0 0 0 0 0 0 0 0 0 0 0 0 0 127 0" result="hardAlpha"/>
<feOffset dy="4"/>
<feGaussianBlur stdDeviation="2"/>
<feComposite in2="hardAlpha" operator="out"/>
<feColorMatrix type="matrix" values="0 0 0 0 0 0 0 0 0 0 0 0 0 0 0 0 0 0 0.25 0"/>
<feBlend mode="normal" in2="BackgroundImageFix" result="effect1_dropShadow"/>
<feBlend mode="normal" in="SourceGraphic" in2="effect1_dropShadow" result="shape"/>
</filter>
</defs>
</svg>
