<svg viewBox="0 0 372 372" fill="currentColor" xmlns="http://www.w3.org/2000/svg"><circle cx="185.6708" cy="183.8122" r="65.625"/><path d="M185.6708,87.5622a13.1256,13.1256,0,0,0,13.125-13.125V52.5622a13.125,13.125,0,1,0-26.25,0v21.875A13.1257,13.1257,0,0,0,185.6708,87.5622Z"/><path d="M99.051,115.7519a13.1236,13.1236,0,1,0,18.56-18.56L102.1442,81.726a13.1236,13.1236,0,0,0-18.5595,18.56Z"/><path d="M89.4208,183.8122a13.1257,13.1257,0,0,0-13.125-13.125H54.4208a13.125,13.125,0,0,0,0,26.25h21.875A13.1256,13.1256,0,0,0,89.4208,183.8122Z"/><path d="M99.051,251.8725,83.5847,267.3431a13.1236,13.1236,0,1,0,18.56,18.56l15.4663-15.4706a13.1236,13.1236,0,1,0-18.5595-18.56Z"/><path d="M185.6708,280.0622a13.1258,13.1258,0,0,0-13.125,13.125v21.875a13.125,13.125,0,0,0,26.25,0v-21.875A13.1257,13.1257,0,0,0,185.6708,280.0622Z"/><path d="M272.2907,251.8725a13.1236,13.1236,0,1,0-18.56,18.56l15.4663,15.4706a13.1236,13.1236,0,1,0,18.56-18.56Z"/><path d="M330.0458,183.8122a13.1257,13.1257,0,0,0-13.125-13.125h-21.875a13.125,13.125,0,0,0,0,26.25h21.875A13.1256,13.1256,0,0,0,330.0458,183.8122Z"/><path d="M263.0109,119.5971a13.0824,13.0824,0,0,0,9.28-3.8452l15.4663-15.4663a13.1236,13.1236,0,1,0-18.56-18.56L253.7312,97.1923a13.125,13.125,0,0,0,9.28,22.4048Z"/></svg>